<?xml version="1.0" encoding="utf-8"?>
<!-- Generator: Adobe Illustrator 18.1.1, SVG Export Plug-In . SVG Version: 6.00 Build 0)  -->
<svg version="1.1" id="Layer_1" xmlns="http://www.w3.org/2000/svg" xmlns:xlink="http://www.w3.org/1999/xlink" x="0px" y="0px"
	 viewBox="0 0 20 20" enable-background="new 0 0 20 20" xml:space="preserve">
<path d="M12,5.5v5.4c2.3,1.1,3.6-0.1,3.7-3c0-2.5-1.6-3.9-4.1-4.7l-4-1.1l0,14.6l3.2,1.1l0-12.5l0,0C10.7,4.2,12,4.7,12,5.5z
	 M1.8,12.8c-1,0.4-1.8,0.7-1.8,1.5c0,0.9,1.5,1.4,3.6,1.7c1.1,0.2,2.3,0.1,3.2-0.1l0-1.7c0,0-1.8,0.7-2.3,0.8l-0.9,0
	c-0.6,0-1-0.4-0.3-0.6l3.5-1.3l0-1.9l0,0l-0.5,0.2L1.8,12.8z M15.9,11.9c-0.2,0-0.4,0-0.6,0c-0.1,0-0.2,0-0.2,0l0,0
	c-1.2,0-2.9,0.3-3.7,0.7v2l2.2-0.8l1.7-0.6c1.8-0.3,2.5,0.3,0.8,0.9l-4.7,1.7l0,1.9l6.8-2.5c0.8-0.3,1.8-0.8,1.8-1.4
	C19.8,12.7,18.3,12.1,15.9,11.9z"/>
</svg>
